<svg width="50" height="48" viewBox="0 0 50 48" fill="none" xmlns="http://www.w3.org/2000/svg">
<path d="M7.73578 0.292961C7.07241 0.476334 6.43967 0.978199 6.11309 1.57658L5.80692 2.15565L5.7763 4.35612L5.73548 6.55661H4.23525C2.06146 6.55661 1.37768 6.83649 0.785757 7.98499L0.5 8.53511V24.8939V41.2527L0.734729 41.7064C0.867402 41.9476 1.17357 42.324 1.41851 42.546C2.23495 43.2602 1.82673 43.2312 11.8997 43.2312H20.8602V45.1615C20.8602 46.9663 20.8704 47.1014 21.0643 47.2848C21.2684 47.4778 21.4011 47.4778 27.8 47.4778C34.1989 47.4778 34.3316 47.4778 34.5357 47.2848C34.7296 47.1014 34.7398 46.9663 34.7398 45.1615V43.2312H38.3934C42.588 43.2312 42.8125 43.2023 43.5881 42.5267C44.4045 41.8222 44.476 41.5809 44.5168 39.0619L44.5576 36.8807L46.2109 36.8421C47.6703 36.8132 47.9051 36.7842 48.2725 36.6009C48.844 36.3113 49.3237 35.8481 49.5788 35.3172L49.7931 34.8829V18.5145V2.15565L49.4869 1.57658C49.1502 0.958897 48.5174 0.466682 47.8234 0.28331C47.3438 0.157845 8.19503 0.167496 7.73578 0.292961ZM47.5989 1.68274C47.752 1.75995 47.9867 1.94332 48.099 2.07844C48.3031 2.32937 48.3133 2.44518 48.3133 5.26334V8.19731H35.7706H23.2279L21.6154 6.65312C20.4112 5.49497 19.9111 5.07997 19.6457 5.01241C19.1559 4.88694 12.9611 4.88694 12.4712 5.01241C12.2671 5.07032 11.9813 5.24404 11.8384 5.40811C11.5833 5.688 11.5731 5.75555 11.5731 6.9523V8.19731H9.36868H7.17447L7.20509 5.32125C7.2357 2.13634 7.24591 2.12669 7.92969 1.731C8.24606 1.53797 8.60326 1.53797 27.7796 1.53797C44.8128 1.53797 47.3438 1.55727 47.5989 1.68274ZM20.7275 7.77266C21.5542 8.60266 22.3604 9.33615 22.5135 9.41336C22.7482 9.52918 24.7996 9.54848 35.5563 9.54848H48.3133V22.1337V34.7092L48.099 34.9698C47.6295 35.5296 47.8745 35.5103 40.7918 35.5006H34.2806L34.8215 35.269C35.2807 35.0663 35.393 34.9698 35.5767 34.5741C35.7502 34.2074 35.7706 34.0529 35.689 33.773C35.6379 33.58 34.0152 30.7426 32.0864 27.4611C28.8002 21.8634 28.5654 21.487 28.2184 21.3519C27.9021 21.2265 27.8 21.2168 27.4428 21.3326C27.0448 21.4677 26.9938 21.5353 25.269 24.4596C20.1764 33.0878 19.8907 33.5993 19.9009 34.0626C19.9111 34.6417 20.1764 35.0084 20.8092 35.2786L21.3195 35.5006H14.7879C8.491 35.5103 8.24606 35.5006 7.92969 35.3172C7.74599 35.2207 7.52146 35.0181 7.41941 34.8636C7.24591 34.6127 7.2357 33.9661 7.20509 22.0758L7.18468 9.54848H9.67485H12.165L12.4814 9.29755C12.8896 8.97906 13.0019 8.55441 13.0019 7.29975V6.26707H16.1044H19.2069L20.7275 7.77266ZM5.7763 21.4002L5.80692 34.8926L6.11309 35.4717C6.44987 36.0893 7.08262 36.5816 7.7766 36.7649C8.02154 36.8228 10.8179 36.8614 15.5227 36.8614C22.8911 36.8614 22.8911 36.8614 23.0034 37.0641C23.0748 37.1703 23.1463 37.4984 23.1769 37.788L23.2381 38.3091H22.738C22.0236 38.3091 21.5542 38.4635 21.2072 38.8013C20.9112 39.0909 20.9112 39.0909 20.8806 40.4903L20.85 41.8801H11.9711C2.33701 41.8801 2.65338 41.8994 2.20434 41.3493L1.97981 41.079V24.9229C1.97981 9.88628 1.99002 8.73778 2.15331 8.4772C2.44927 8.00429 2.79626 7.90778 4.34752 7.90778H5.75589L5.7763 21.4002ZM27.0856 25.7432V27.162L26.708 27.355C25.9732 27.7314 25.514 28.7834 25.7487 29.5941C26.0344 30.5978 26.7897 31.0997 27.9123 31.0514C28.4532 31.0225 28.6777 30.9645 28.9941 30.7522C30.229 29.9415 30.1983 28.1367 28.9328 27.4032L28.5246 27.162L28.5144 25.7239C28.5144 24.9325 28.5348 24.3052 28.5552 24.3245C28.6165 24.3824 34.2296 33.9661 34.2296 34.0047C34.2296 34.0336 34.0561 34.1012 33.8519 34.1687C32.3415 34.632 31.0964 36.1472 30.9842 37.6432L30.9331 38.3091H27.8H24.6669L24.6159 37.6335C24.5036 36.2438 23.4626 34.8733 22.0338 34.2363L21.3603 33.9468L21.5542 33.6379C21.6562 33.4739 22.9319 31.312 24.3811 28.822C25.8303 26.3416 27.0346 24.3149 27.055 24.3149C27.0754 24.3149 27.0856 24.9518 27.0856 25.7432ZM28.3001 28.7158C28.4226 28.8606 28.5144 29.0246 28.5144 29.0922C28.5144 29.3431 28.096 29.7195 27.8102 29.7195C27.2081 29.7195 26.9223 29.1694 27.2897 28.7255C27.5857 28.378 28.0143 28.378 28.3001 28.7158ZM43.088 38.9268C43.037 42.0441 43.3125 41.8801 38.3424 41.8801H34.75L34.7194 40.4903C34.6888 39.1584 34.6786 39.0812 34.4337 38.8303C34.0765 38.4732 33.6172 38.3091 32.9436 38.3091H32.3619L32.4232 37.788C32.5354 36.7649 31.9639 36.8614 37.9138 36.8614H43.1288L43.088 38.9268ZM33.311 42.8935V46.1266H27.8H22.289V42.8935V39.6603H27.8H33.311V42.8935Z" fill="#154B9A"/>
<path d="M35.097 3.23654C34.3316 3.61294 33.9846 4.21132 34.0459 5.03167C34.1173 6.00644 34.8827 6.65308 35.9441 6.65308C36.9034 6.65308 37.5464 6.18982 37.8015 5.32121C38.0158 4.52981 37.5974 3.62259 36.8524 3.2848C36.3217 3.04352 35.5359 3.02422 35.097 3.23654ZM36.3319 4.67458C36.6075 5.07028 35.9339 5.52388 35.5767 5.18609C35.4032 5.02202 35.4236 4.76144 35.6175 4.57806C35.8318 4.37539 36.1584 4.42364 36.3319 4.67458Z" fill="#154B9A"/>
<path d="M39.4242 3.3525C38.2097 4.086 38.2812 5.85217 39.5365 6.4602C39.9753 6.67252 40.7816 6.71113 41.2408 6.54706C42.1899 6.20927 42.6492 5.02217 42.2001 4.086C41.894 3.45867 41.3735 3.14018 40.5672 3.10157C39.9651 3.07262 39.8426 3.10157 39.4242 3.3525ZM40.802 4.58786C41.1388 4.8967 40.9346 5.30205 40.4346 5.30205C40.0468 5.30205 39.8733 4.98356 40.0978 4.66507C40.2815 4.39484 40.5672 4.36588 40.802 4.58786Z" fill="#154B9A"/>
<path d="M44.18 3.21724C43.5167 3.49713 43.1084 4.12446 43.1084 4.8676C43.1084 5.39842 43.2513 5.75551 43.5983 6.10296C44.0065 6.51796 44.3637 6.65308 45.0067 6.65308C46.1395 6.65308 46.8845 5.94854 46.8845 4.87725C46.8845 4.57806 46.8233 4.21132 46.7416 4.06655C46.5477 3.7191 46.0783 3.31375 45.7313 3.18829C45.3333 3.04352 44.5474 3.06282 44.18 3.21724ZM45.3333 4.54911C45.4047 4.61667 45.4557 4.75179 45.4557 4.8676C45.4557 4.98341 45.4047 5.11853 45.3333 5.18609C45.2618 5.25365 45.1189 5.30191 44.9965 5.30191C44.874 5.30191 44.7311 5.25365 44.6597 5.18609C44.5883 5.11853 44.5372 4.98341 44.5372 4.8676C44.5372 4.75179 44.5883 4.61667 44.6597 4.54911C44.7311 4.48155 44.874 4.4333 44.9965 4.4333C45.1189 4.4333 45.2618 4.48155 45.3333 4.54911Z" fill="#154B9A"/>
<path d="M25.5752 14.2775C25.1466 14.5285 24.9424 14.9821 24.9424 15.7252V16.3043H20.3499H15.7676L15.6349 15.8893C15.4512 15.3102 14.6246 14.5478 13.9918 14.3837C12.4304 13.9687 10.8995 14.7408 10.5525 16.1209C10.0525 18.0994 11.8793 19.7305 13.9612 19.161C14.6144 18.9777 15.2369 18.5048 15.492 17.9932L15.6655 17.6554H18.6966H21.7175L20.9623 18.0898C18.2271 19.6919 16.084 22.2784 15.1859 25.0579L14.9307 25.859H14.3082C13.4611 25.859 13.0223 26.0713 12.7773 26.6021C12.6039 26.9785 12.5834 27.2102 12.6141 28.7061C12.6447 30.2213 12.6651 30.4047 12.859 30.6556C13.2774 31.1865 13.5938 31.2637 15.5022 31.2637C18.2374 31.2637 18.3088 31.1865 18.3088 28.5131C18.3088 26.9399 18.2884 26.7469 18.1047 26.4574C17.87 26.0906 17.3699 25.859 16.829 25.859C16.482 25.859 16.4718 25.8493 16.533 25.5888C16.7473 24.7684 17.5944 23.147 18.2986 22.2494C19.3191 20.9272 20.7275 19.7594 22.2175 19.0066C22.9728 18.6206 24.5138 18.0415 24.7792 18.0415C24.8608 18.0415 24.9629 18.2249 25.0343 18.4662C25.1057 18.7364 25.2588 18.9777 25.4629 19.1417L25.7793 19.3927H27.7694C29.4635 19.3927 29.8003 19.3637 30.0555 19.2286C30.382 19.0452 30.6576 18.5723 30.6576 18.2056V17.9643L31.1985 18.1091C32.0149 18.3214 34.0969 19.3251 34.8419 19.8656C36.6279 21.1395 38.0975 23.0022 38.8731 24.9518C39.1997 25.7818 39.1997 25.859 38.8221 25.859C38.3322 25.859 37.8219 26.1099 37.5974 26.4574C37.4137 26.7469 37.3933 26.9399 37.3933 28.5613C37.3933 31.2154 37.4443 31.2637 40.2202 31.2637C42.1083 31.2637 42.4349 31.1865 42.8431 30.6556C43.037 30.4144 43.0574 30.2213 43.088 28.8123C43.1288 27.0364 43.0472 26.6021 42.5982 26.1968C42.3124 25.9362 42.2001 25.9072 41.4959 25.8783L40.7101 25.8397L40.4244 25.0097C39.4446 22.1047 37.281 19.5374 34.5561 18.0318L33.8724 17.6554H36.9545C39.9957 17.6554 40.0365 17.6554 40.0978 17.8581C40.21 18.1766 40.8632 18.8039 41.302 19.0259C42.2001 19.4506 43.486 19.3155 44.2719 18.7074C45.3639 17.8485 45.4557 16.0147 44.4556 15.0207C43.7514 14.3161 42.3838 14.0652 41.3939 14.4705C40.7509 14.7311 40.1386 15.3585 39.9549 15.9086L39.8324 16.3043H35.2501H30.6576V15.7252C30.6576 14.9821 30.4535 14.5285 30.0248 14.2775C29.7187 14.1038 29.5146 14.0845 27.8 14.0845C26.0855 14.0845 25.8814 14.1038 25.5752 14.2775ZM29.2288 16.7868V18.138H27.8H26.3712V16.7868V15.4357H27.8H29.2288V16.7868ZM13.9306 15.8989C14.3286 16.2367 14.4409 16.8834 14.1755 17.3563C14.002 17.6844 13.5122 17.945 13.0835 17.945C12.5426 17.945 11.8793 17.308 11.8793 16.7868C11.8793 16.671 11.9507 16.4394 12.0323 16.2657C12.3691 15.5997 13.3489 15.4067 13.9306 15.8989ZM43.0982 15.7735C43.2615 15.8507 43.4656 16.0726 43.5677 16.2657C44.18 17.4914 42.5267 18.5241 41.5878 17.501C41.3327 17.2308 41.2714 17.0764 41.2714 16.7289C41.2714 16.3525 41.3225 16.2367 41.6184 15.9568C41.9042 15.6866 42.0471 15.6287 42.3838 15.6287C42.6186 15.6287 42.9451 15.6963 43.0982 15.7735ZM16.88 28.5613V29.9125H15.4512H14.0224V28.5613V27.2102H15.4512H16.88V28.5613ZM41.6082 28.1463C41.649 28.6675 41.6796 29.2755 41.6796 29.4975V29.9125H40.2509H38.8221V29.594C38.8221 29.4106 38.7915 28.8026 38.7506 28.2428L38.6894 27.2102H40.1182H41.547L41.6082 28.1463Z" fill="#154B9A"/>
</svg>
